<svg width="32" height="32" viewBox="0 0 32 32" fill="none" xmlns="http://www.w3.org/2000/svg">
<g clip-path="url(#clip0_6_2299)">
<path d="M5.49141 28.7638C5.34575 28.8863 5.16816 28.9647 4.97949 28.9898C4.79081 29.0149 4.59889 28.9856 4.42628 28.9054C4.25367 28.8252 4.10753 28.6974 4.00503 28.537C3.90254 28.3766 3.84794 28.1903 3.84766 28V8C3.84766 7.73478 3.95301 7.48043 4.14055 7.29289C4.32809 7.10536 4.58244 7 4.84766 7H26.8477C27.1129 7 27.3672 7.10536 27.5548 7.29289C27.7423 7.48043 27.8477 7.73478 27.8477 8V24C27.8477 24.2652 27.7423 24.5196 27.5548 24.7071C27.3672 24.8946 27.1129 25 26.8477 25H9.84766L5.49141 28.7638Z" stroke="#ECFEFE" stroke-width="2" stroke-linecap="round" stroke-linejoin="round"/>
</g>
<defs>
<clipPath id="clip0_6_2299">
<rect width="32" height="32" fill="white"/>
</clipPath>
</defs>
</svg>
