<svg width="25" height="25" viewBox="0 0 25 25" fill="none" xmlns="http://www.w3.org/2000/svg">
<path d="M12.2314 3.11676C10.3031 3.11676 8.41802 3.68859 6.81464 4.75993C5.21126 5.83128 3.96158 7.35402 3.22362 9.1356C2.48567 10.9172 2.29259 12.8776 2.66879 14.7689C3.045 16.6602 3.9736 18.3975 5.33716 19.7611C6.70072 21.1246 8.438 22.0532 10.3293 22.4294C12.2206 22.8056 14.181 22.6125 15.9626 21.8746C17.7442 21.1366 19.2669 19.8869 20.3383 18.2836C21.4096 16.6802 21.9814 14.7951 21.9814 12.8668C21.9787 10.2817 20.9506 7.80337 19.1227 5.97548C17.2948 4.1476 14.8165 3.11949 12.2314 3.11676ZM7.17645 19.3824C7.71901 18.5338 8.46645 17.8355 9.34988 17.3518C10.2333 16.8681 11.2243 16.6146 12.2314 16.6146C13.2386 16.6146 14.2296 16.8681 15.113 17.3518C15.9964 17.8355 16.7439 18.5338 17.2864 19.3824C15.8411 20.5064 14.0624 21.1167 12.2314 21.1167C10.4005 21.1167 8.62176 20.5064 7.17645 19.3824ZM9.23145 12.1168C9.23145 11.5234 9.4074 10.9434 9.73704 10.45C10.0667 9.9567 10.5352 9.57218 11.0834 9.34512C11.6316 9.11806 12.2348 9.05865 12.8167 9.1744C13.3987 9.29016 13.9332 9.57588 14.3528 9.99544C14.7723 10.415 15.0581 10.9495 15.1738 11.5315C15.2896 12.1134 15.2302 12.7166 15.0031 13.2648C14.776 13.813 14.3915 14.2815 13.8982 14.6112C13.4048 14.9408 12.8248 15.1168 12.2314 15.1168C11.4358 15.1168 10.6727 14.8007 10.1101 14.2381C9.54752 13.6755 9.23145 12.9124 9.23145 12.1168ZM18.3964 18.3427C17.56 17.1306 16.3838 16.1928 15.0158 15.6474C15.7507 15.0686 16.2869 14.2752 16.5499 13.3776C16.8129 12.48 16.7897 11.5227 16.4834 10.6388C16.1771 9.75501 15.6031 8.98859 14.841 8.44616C14.079 7.90372 13.1668 7.61224 12.2314 7.61224C11.2961 7.61224 10.3839 7.90372 9.62188 8.44616C8.85984 8.98859 8.28577 9.75501 7.9795 10.6388C7.67323 11.5227 7.64999 12.48 7.91302 13.3776C8.17604 14.2752 8.71225 15.0686 9.44707 15.6474C8.07909 16.1928 6.90292 17.1306 6.06645 18.3427C5.00948 17.1541 4.31864 15.6853 4.07712 14.1132C3.83559 12.541 4.05368 10.9326 4.70512 9.48154C5.35656 8.03048 6.41358 6.79868 7.74889 5.93445C9.0842 5.07022 10.6409 4.61043 12.2314 4.61043C13.822 4.61043 15.3787 5.07022 16.714 5.93445C18.0493 6.79868 19.1063 8.03048 19.7578 9.48154C20.4092 10.9326 20.6273 12.541 20.3858 14.1132C20.1443 15.6853 19.4534 17.1541 18.3964 18.3427Z" fill="white"/>
</svg>
