<svg width="36" height="36" viewBox="0 0 36 36" fill="none" xmlns="http://www.w3.org/2000/svg">
<path d="M35.4456 0.281569C35.2731 0.157126 35.0723 0.0706912 34.8583 0.028821C34.6444 -0.0130492 34.4229 -0.00925464 34.2108 0.039917L11.1708 5.37293C10.8593 5.44503 10.5827 5.61147 10.3851 5.84579C10.1874 6.08012 10.0801 6.36888 10.08 6.66619V25.0118C8.87875 24.2686 7.44372 23.9185 6.00291 24.017C4.56211 24.1155 3.19817 24.6569 2.1278 25.5553C1.05743 26.4537 0.342025 27.6575 0.0952448 28.9755C-0.151536 30.2935 0.084464 31.65 0.765749 32.8296C1.44703 34.0091 2.53453 34.9441 3.85545 35.4859C5.17637 36.0276 6.65495 36.1452 8.05628 35.8198C9.45761 35.4944 10.7013 34.7448 11.5898 33.69C12.4783 32.6352 12.9605 31.3358 12.96 29.9981V7.7078L33.12 3.04141V19.6788C31.9187 18.9356 30.4837 18.5855 29.0429 18.684C27.6021 18.7825 26.2382 19.3239 25.1678 20.2223C24.0974 21.1207 23.382 22.3245 23.1352 23.6425C22.8885 24.9605 23.1245 26.317 23.8057 27.4966C24.487 28.6761 25.5745 29.6111 26.8954 30.1528C28.2164 30.6946 29.6949 30.8121 31.0963 30.4868C32.4976 30.1614 33.7413 29.4118 34.6298 28.357C35.5183 27.3022 36.0005 26.0028 36 24.6651V1.33317C36 1.13039 35.9501 0.930276 35.8541 0.748047C35.758 0.565818 35.6183 0.406279 35.4456 0.281569ZM6.48001 33.3313C5.768 33.3313 5.07197 33.1358 4.47996 32.7695C3.88794 32.4033 3.42652 31.8827 3.15404 31.2737C2.88157 30.6646 2.81027 29.9944 2.94918 29.3479C3.08809 28.7013 3.43095 28.1074 3.93442 27.6413C4.43789 27.1751 5.07935 26.8577 5.77768 26.729C6.47601 26.6004 7.19985 26.6664 7.85767 26.9187C8.51548 27.171 9.07773 27.5982 9.4733 28.1463C9.86887 28.6945 10.08 29.3389 10.08 29.9981C10.08 30.8821 9.70072 31.7299 9.02559 32.355C8.35046 32.9801 7.43479 33.3313 6.48001 33.3313ZM29.52 27.9983C28.808 27.9983 28.112 27.8028 27.5199 27.4365C26.9279 27.0703 26.4665 26.5497 26.194 25.9407C25.9216 25.3316 25.8503 24.6614 25.9892 24.0149C26.1281 23.3683 26.4709 22.7744 26.9744 22.3082C27.4779 21.8421 28.1193 21.5246 28.8177 21.396C29.516 21.2674 30.2399 21.3334 30.8977 21.5857C31.5555 21.838 32.1177 22.2652 32.5133 22.8133C32.9089 23.3615 33.12 24.0059 33.12 24.6651C33.12 25.5491 32.7407 26.3969 32.0656 27.022C31.3905 27.6471 30.4748 27.9983 29.52 27.9983Z" fill="white"/>
</svg>
