<svg width="32" height="32" viewBox="0 0 32 32" fill="none" xmlns="http://www.w3.org/2000/svg">
<g clip-path="url(#clip0_6_2642)">
<path d="M13.2051 18.1807L19.7051 11.6807" stroke="#ECFEFE" stroke-width="2" stroke-linecap="round" stroke-linejoin="round"/>
<path d="M27.6672 4.95337C27.7154 4.78231 27.7172 4.60149 27.6723 4.42954C27.6274 4.25758 27.5375 4.10069 27.4118 3.97502C27.2861 3.84935 27.1293 3.75945 26.9573 3.71456C26.7853 3.66967 26.6045 3.67141 26.4335 3.71962L2.43347 10.9971C2.23753 11.0524 2.06313 11.1662 1.9336 11.3233C1.80406 11.4803 1.72555 11.6732 1.70857 11.8761C1.69158 12.079 1.73692 12.2822 1.83854 12.4586C1.94015 12.6351 2.0932 12.7763 2.27722 12.8634L13.206 18.1809L18.5235 29.1084C18.6106 29.2924 18.7518 29.4454 18.9282 29.547C19.1046 29.6487 19.3079 29.694 19.5107 29.677C19.7136 29.66 19.9065 29.5815 20.0636 29.452C20.2206 29.3224 20.3344 29.1481 20.3897 28.9521L27.6672 4.95337Z" stroke="#ECFEFE" stroke-width="2" stroke-linecap="round" stroke-linejoin="round"/>
</g>
<defs>
<clipPath id="clip0_6_2642">
<rect width="32" height="32" fill="white"/>
</clipPath>
</defs>
</svg>
