<svg width="25" height="25" viewBox="0 0 25 25" fill="none" xmlns="http://www.w3.org/2000/svg">
<g clip-path="url(#clip0_69_1675)">
<path d="M16.2867 17.4968C16.9787 16.8191 17.4533 15.9507 17.6497 15.0023C17.8462 14.0539 17.7557 13.0684 17.3897 12.1717C17.0238 11.2749 16.399 10.5074 15.5951 9.96722C14.7912 9.427 13.8446 9.13848 12.8761 9.13848C11.9075 9.13848 10.9609 9.427 10.157 9.96722C9.35307 10.5074 8.72831 11.2749 8.36238 12.1717C7.99645 13.0684 7.90594 14.0539 8.1024 15.0023C8.29886 15.9507 8.77338 16.8191 9.46543 17.4968C8.2937 18.1196 7.3195 19.0578 6.65293 20.2052C6.51018 20.4632 6.47439 20.7668 6.55326 21.0509C6.63213 21.335 6.81936 21.5767 7.07466 21.7242C7.32997 21.8716 7.63294 21.9129 7.9184 21.8392C8.20386 21.7656 8.44899 21.5828 8.60106 21.3302C9.04066 20.5875 9.66615 19.972 10.4159 19.5445C11.1657 19.1171 12.0139 18.8922 12.877 18.8922C13.7401 18.8922 14.5883 19.1171 15.3381 19.5445C16.0878 19.972 16.7133 20.5875 17.1529 21.3302C17.2253 21.461 17.323 21.576 17.4403 21.6686C17.5577 21.7612 17.6923 21.8295 17.8363 21.8695C17.9803 21.9095 18.1308 21.9203 18.2791 21.9015C18.4274 21.8826 18.5704 21.8344 18.6999 21.7597C18.8293 21.685 18.9425 21.5852 19.033 21.4662C19.1234 21.3472 19.1892 21.2113 19.2266 21.0666C19.2639 20.9219 19.2721 20.7712 19.2505 20.6233C19.229 20.4754 19.1781 20.3333 19.1011 20.2052C18.434 19.0575 17.4591 18.1193 16.2867 17.4968ZM10.2511 14.0186C10.2511 13.4995 10.405 12.9919 10.6934 12.5603C10.9819 12.1286 11.3919 11.7921 11.8715 11.5935C12.3512 11.3948 12.879 11.3428 13.3882 11.4441C13.8974 11.5454 14.3651 11.7954 14.7322 12.1625C15.0993 12.5296 15.3493 12.9973 15.4506 13.5065C15.5519 14.0157 15.4999 14.5435 15.3012 15.0232C15.1026 15.5028 14.7661 15.9128 14.3344 16.2013C13.9028 16.4897 13.3952 16.6436 12.8761 16.6436C12.1799 16.6436 11.5122 16.3671 11.0199 15.8748C10.5276 15.3825 10.2511 14.7148 10.2511 14.0186ZM24.052 14.9177C23.9338 15.0065 23.7993 15.0712 23.6561 15.108C23.513 15.1449 23.3639 15.1531 23.2176 15.1323C23.0712 15.1115 22.9304 15.062 22.8032 14.9868C22.6759 14.9115 22.5648 14.8119 22.4761 14.6936C21.6951 13.654 20.6151 12.8571 19.7264 12.6649C19.4901 12.6138 19.2765 12.4879 19.1173 12.3059C18.9582 12.1239 18.8619 11.8954 18.8427 11.6544C18.8236 11.4134 18.8826 11.1726 19.011 10.9677C19.1394 10.7629 19.3305 10.6049 19.5557 10.5171C19.8362 10.4076 20.0862 10.2322 20.2846 10.0056C20.4829 9.77909 20.6238 9.50812 20.6953 9.21563C20.7668 8.92314 20.7668 8.61773 20.6953 8.32524C20.6238 8.03275 20.4829 7.76178 20.2846 7.53525C20.0862 7.30872 19.8362 7.13329 19.5557 7.0238C19.2753 6.91431 18.9725 6.87398 18.6732 6.90622C18.3738 6.93846 18.0866 7.04233 17.8358 7.20904C17.5851 7.37574 17.3782 7.60038 17.2326 7.86396C17.1636 7.99752 17.0685 8.1159 16.9529 8.21209C16.8374 8.30828 16.7037 8.38032 16.5598 8.42397C16.4159 8.46762 16.2648 8.48199 16.1152 8.46622C15.9657 8.45045 15.8209 8.40487 15.6893 8.33217C15.5576 8.25948 15.4419 8.16113 15.349 8.04296C15.256 7.92478 15.1877 7.78917 15.148 7.64414C15.1084 7.49911 15.0982 7.3476 15.1181 7.19857C15.138 7.04954 15.1876 6.90601 15.2639 6.77646C15.5422 6.28422 15.9189 5.85448 16.3703 5.51393C16.8218 5.17338 17.3384 4.92929 17.8882 4.79683C18.438 4.66437 19.0091 4.64636 19.5661 4.74393C20.1232 4.84149 20.6542 5.05255 21.1262 5.36398C21.5982 5.67542 22.0011 6.08058 22.31 6.55431C22.6188 7.02803 22.8269 7.56019 22.9214 8.11774C23.0159 8.67529 22.9948 9.24632 22.8593 9.79535C22.7238 10.3444 22.4769 10.8597 22.1339 11.3093C22.9593 11.8591 23.684 12.547 24.2761 13.3427C24.4552 13.5813 24.5322 13.8812 24.4902 14.1766C24.4482 14.472 24.2905 14.7385 24.052 14.9177ZM6.02574 12.6677C5.13699 12.8599 4.05699 13.6568 3.27606 14.6974C3.09641 14.936 2.82936 15.0934 2.53364 15.1351C2.23792 15.1767 1.93775 15.0992 1.69918 14.9196C1.46061 14.7399 1.30318 14.4729 1.26151 14.1772C1.21984 13.8814 1.29735 13.5813 1.47699 13.3427C2.06934 12.5472 2.79394 11.8594 3.61918 11.3093C3.27615 10.8597 3.02923 10.3444 2.89374 9.79535C2.75826 9.24632 2.73711 8.67529 2.83161 8.11774C2.92611 7.56019 3.13424 7.02803 3.44308 6.55431C3.75191 6.08058 4.15485 5.67542 4.62687 5.36398C5.09888 5.05255 5.62989 4.84149 6.18691 4.74393C6.74393 4.64636 7.31507 4.66437 7.86484 4.79683C8.4146 4.92929 8.93127 5.17338 9.38273 5.51393C9.83419 5.85448 10.2108 6.28422 10.4892 6.77646C10.5655 6.90601 10.6151 7.04954 10.635 7.19857C10.6548 7.3476 10.6447 7.49911 10.605 7.64414C10.5654 7.78917 10.497 7.92478 10.4041 8.04296C10.3111 8.16113 10.1954 8.25948 10.0638 8.33217C9.93219 8.40487 9.78734 8.45045 9.63782 8.46622C9.48829 8.48199 9.33712 8.46762 9.19324 8.42397C9.04936 8.38032 8.9157 8.30828 8.80013 8.21209C8.68457 8.1159 8.58947 7.99752 8.52043 7.86396C8.37486 7.60038 8.16796 7.37574 7.91722 7.20904C7.66647 7.04233 7.37927 6.93846 7.0799 6.90622C6.78053 6.87398 6.4778 6.91431 6.19731 7.0238C5.91682 7.13329 5.66682 7.30872 5.46847 7.53525C5.27011 7.76178 5.12923 8.03275 5.05774 8.32524C4.98624 8.61773 4.98624 8.92314 5.05774 9.21563C5.12923 9.50812 5.27011 9.77909 5.46847 10.0056C5.66682 10.2322 5.91682 10.4076 6.19731 10.5171C6.42259 10.6049 6.61361 10.7629 6.74204 10.9677C6.87046 11.1726 6.92948 11.4134 6.91033 11.6544C6.89118 11.8954 6.79489 12.1239 6.63573 12.3059C6.47657 12.4879 6.263 12.6138 6.02668 12.6649L6.02574 12.6677Z" fill="white"/>
</g>
<defs>
<clipPath id="clip0_69_1675">
<rect width="24" height="24" fill="white" transform="translate(0.875977 0.518616)"/>
</clipPath>
</defs>
</svg>
